<svg xmlns="http://www.w3.org/2000/svg" xmlns:xlink="http://www.w3.org/1999/xlink" version="1.1" width="255" height="65" style=""><rect id="backgroundrect" width="100%" height="100%" x="0" y="0" fill="none" stroke="none"/><g class="currentLayer" style=""><title>Layer 1</title><g id="svgg" class=""><path id="path0" d="M92.89014434814453,17.274713256835938 C92.24814434814454,17.35371325683593 91.38614434814454,17.502713256835932 90.97314434814453,17.60571325683594 C90.56114434814452,17.707713256835945 90.01614434814454,17.833713256835935 89.76314434814452,17.884713256835937 C89.51014434814454,17.93571325683594 89.26214434814455,18.04271325683594 89.21114434814453,18.124713256835932 C89.16114434814452,18.205713256835935 88.99414434814454,18.272713256835942 88.83814434814454,18.273713256835933 C87.35414434814453,18.284713256835943 83.09014434814452,21.639713256835932 81.53214434814453,24.021713256835938 C78.54914434814452,28.58471325683594 78.17514434814453,34.78571325683593 80.56814434814453,40.02171325683594 C83.89314434814452,47.29671325683594 94.57914434814452,50.83171325683594 101.98114434814454,47.10571325683594 C104.12914434814454,46.02471325683594 107.64014434814453,42.71071325683593 107.64014434814453,41.76371325683594 C107.64014434814453,41.52471325683594 103.04514434814453,39.11971325683594 102.91414434814453,39.29071325683594 C102.88714434814455,39.32571325683594 102.68614434814452,39.61771325683594 102.46814434814453,39.93871325683594 C99.09514434814454,44.88571325683594 91.00914434814453,44.78471325683594 87.05114434814453,39.74671325683593 C86.64214434814454,39.22571325683593 86.30714434814453,38.71871325683594 86.30714434814453,38.61871325683593 C86.30714434814453,38.51971325683594 86.25014434814454,38.43871325683594 86.18114434814453,38.43871325683594 C85.87514434814454,38.43871325683594 85.05114434814453,35.86171325683594 84.81614434814452,34.17171325683594 C84.58214434814454,32.48071325683594 84.88514434814454,30.027713256835938 85.50314434814453,28.604713256835936 C85.60314434814453,28.375713256835937 85.76514434814453,28.000713256835937 85.86414434814452,27.771713256835938 C88.66114434814452,21.271713256835938 99.15514434814452,20.134713256835937 102.59614434814452,25.95971325683594 C102.93814434814453,26.538713256835933 102.89214434814454,26.550713256835934 105.51114434814454,25.23971325683594 C107.81414434814454,24.086713256835935 107.84414434814454,24.044713256835934 107.12114434814453,22.99371325683593 C104.16614434814454,18.698713256835944 98.80914434814454,16.546713256835943 92.89014434814453,17.274713256835938 M194.47314434814456,22.93871325683594 L194.47314434814456,25.93871325683594 L192.64014434814453,25.93871325683594 L190.8071443481445,25.93871325683594 L190.8071443481445,28.104713256835936 L190.8071443481445,30.271713256835938 L192.64014434814453,30.271713256835938 L194.47314434814456,30.271713256835938 L194.4751443481445,37.14671325683594 C194.47714434814452,45.12271325683594 194.5471443481445,45.58871325683593 195.9511443481445,47.056713256835934 C197.59214434814453,48.77071325683593 201.51214434814455,49.12471325683593 204.10614434814454,47.79171325683593 C205.03814434814456,47.312713256835934 205.09814434814456,47.101713256835936 204.65414434814454,45.87671325683594 C204.4511443481445,45.314713256835944 204.22014434814452,44.601713256835936 204.14214434814454,44.29271325683594 C203.9321443481445,43.46571325683594 203.78614434814455,43.39871325683593 203.01414434814455,43.77071325683593 C202.17514434814456,44.17671325683594 201.10914434814453,44.201713256835944 200.54214434814452,43.830713256835935 C199.65614434814455,43.24971325683593 199.64014434814453,43.11971325683594 199.64014434814453,36.446713256835935 L199.64014434814453,30.271713256835938 L201.89014434814453,30.271713256835938 L204.14014434814453,30.271713256835938 L204.14014434814453,28.104713256835936 L204.14014434814453,25.93871325683594 L201.89014434814453,25.93871325683594 L199.64014434814453,25.93871325683594 L199.64014434814453,22.93871325683594 L199.64014434814453,19.93871325683594 L197.0571443481445,19.93871325683594 L194.47314434814456,19.93871325683594 L194.47314434814456,22.93871325683594 M118.97314434814453,25.537713256835943 C107.36114434814453,27.642713256835933 106.14814434814454,44.88671325683593 117.39014434814453,48.056713256835934 C127.58114434814453,50.93071325683594 135.57414434814453,42.059713256835934 131.76414434814453,32.104713256835936 C131.03114434814452,30.189713256835944 129.63014434814454,28.509713256835937 127.63614434814454,27.153713256835943 C125.72714434814452,25.85571325683594 121.53314434814453,25.073713256835944 118.97314434814453,25.537713256835943 M157.80714434814453,25.553713256835934 C156.70014434814453,25.73971325683594 153.97314434814453,26.860713256835936 153.97314434814453,27.12971325683594 C153.97314434814453,27.207713256835945 153.89314434814452,27.271713256835938 153.79514434814453,27.271713256835938 C153.69714434814452,27.271713256835938 153.51914434814452,27.36571325683593 153.40014434814452,27.479713256835936 C152.98614434814453,27.87971325683594 152.30414434814452,28.43871325683594 152.22914434814453,28.43871325683594 C152.18814434814453,28.43871325683594 152.13314434814453,27.894713256835942 152.10614434814454,27.229713256835936 L152.05714434814453,26.021713256835938 L149.51514434814453,25.97571325683593 L146.97314434814453,25.92971325683594 L146.97314434814453,36.933713256835944 L146.97314434814453,47.93871325683594 L149.55714434814453,47.93871325683594 L152.14014434814453,47.93871325683594 L152.14014434814453,40.21571325683594 L152.14014434814453,32.49271325683594 L152.84814434814453,31.83471325683594 C155.84314434814453,29.055713256835944 160.40714434814453,29.142713256835933 161.62614434814452,32.00271325683593 C161.96114434814453,32.78671325683594 161.97314434814453,33.08871325683593 161.97314434814453,40.37771325683593 L161.97314434814453,47.93871325683594 L164.55714434814453,47.93871325683594 L167.14014434814453,47.93871325683594 L167.13414434814453,39.64671325683594 C167.12714434814453,29.413713256835933 167.06714434814452,29.046713256835943 165.07414434814453,27.08171325683594 C163.74914434814454,25.774713256835938 160.52714434814453,25.09771325683593 157.80714434814453,25.553713256835934 M177.72314434814453,25.536713256835938 C171.74614434814453,26.392713256835933 168.96914434814454,32.49371325683593 172.82714434814454,36.29171325683593 C173.28114434814452,36.738713256835936 173.76314434814452,37.104713256835936 173.89714434814454,37.104713256835936 C174.03014434814452,37.104713256835936 174.14014434814453,37.17971325683594 174.14014434814453,37.27171325683594 C174.14014434814453,37.363713256835936 174.25414434814454,37.43871325683594 174.39214434814454,37.43871325683594 C174.53114434814452,37.43871325683594 174.77514434814452,37.50971325683594 174.93414434814454,37.59671325683594 C175.37114434814453,37.836713256835935 177.10714434814454,38.38271325683594 178.14014434814453,38.604713256835936 C178.64414434814452,38.71371325683593 179.31914434814453,38.86771325683594 179.64014434814453,38.946713256835935 C179.96114434814453,39.02671325683593 180.69114434814452,39.201713256835944 181.26314434814452,39.336713256835935 C185.00914434814453,40.21971325683593 185.76214434814455,42.84671325683594 182.66214434814452,44.21871325683594 C181.90614434814452,44.55271325683594 178.86414434814452,44.59971325683594 177.89014434814453,44.29071325683594 C175.86414434814452,43.64971325683594 173.98814434814454,42.675713256835934 173.28714434814452,41.90271325683594 C172.83814434814454,41.40671325683594 171.80714434814453,42.116713256835936 171.80714434814453,42.92171325683594 C171.80714434814453,43.00771325683594 171.75014434814454,43.10271325683594 171.68214434814453,43.13271325683594 C171.61314434814454,43.16371325683593 171.27814434814454,43.61471325683594 170.93714434814453,44.13671325683593 L170.31714434814452,45.083713256835935 L170.85414434814453,45.52271325683594 C171.14914434814452,45.76371325683594 171.52914434814454,46.074713256835935 171.69914434814453,46.21371325683593 C175.74414434814454,49.50771325683594 184.73314434814452,49.29071325683594 187.91014434814454,45.821713256835935 C190.38114434814455,43.12471325683593 189.79514434814453,38.107713256835936 186.83114434814453,36.582713256835945 C186.58814434814454,36.457713256835945 186.35314434814453,36.315713256835934 186.30714434814453,36.26671325683594 C186.26114434814454,36.217713256835935 185.73614434814453,35.97571325683593 185.14014434814453,35.72871325683593 C184.11314434814454,35.303713256835934 183.41014434814454,35.10871325683594 179.89014434814453,34.26671325683594 C176.44114434814452,33.440713256835934 175.44414434814453,32.59371325683594 176.21014434814452,31.138713256835942 C176.93014434814452,29.770713256835933 179.87814434814453,28.967713256835935 181.90714434814453,29.58571325683593 C182.17314434814452,29.666713256835934 182.72814434814453,29.83171325683594 183.14014434814453,29.952713256835935 C184.17314434814452,30.255713256835932 185.59114434814452,31.058713256835944 186.28414434814454,31.73171325683593 C186.56614434814452,32.00571325683593 186.81214434814453,31.934713256835934 187.04514434814453,31.511713256835932 C187.14314434814452,31.333713256835935 187.26114434814454,31.150713256835942 187.30714434814453,31.104713256835936 C187.35314434814453,31.058713256835944 187.49714434814453,30.83471325683594 187.62814434814453,30.604713256835936 C187.76014434814454,30.375713256835937 188.09014434814452,29.83171325683594 188.36214434814454,29.396713256835938 L188.85714434814454,28.604713256835936 L188.45714434814454,28.253713256835937 C187.23614434814453,27.184713256835934 185.69414434814453,26.395713256835933 183.72314434814453,25.83571325683593 C182.90614434814452,25.60271325683594 178.71714434814453,25.394713256835942 177.72314434814453,25.536713256835938 M215.3071443481445,25.60071325683593 C210.8091443481445,26.43871325683594 208.09114434814455,29.025713256835942 206.47814434814455,34.00471325683594 C205.81714434814455,36.044713256835934 206.48614434814453,41.445713256835944 207.56314434814453,42.77171325683594 C207.67514434814456,42.90971325683594 207.8981443481445,43.27971325683593 208.05814434814454,43.595713256835936 C208.62014434814455,44.704713256835944 210.48614434814453,46.38571325683594 212.10614434814454,47.24371325683593 C220.99814434814454,51.951713256835944 231.6771443481445,43.92671325683594 229.14714434814454,34.43871325683594 C228.6721443481445,32.65671325683594 228.57514434814453,32.34671325683594 228.4441443481445,32.196713256835935 C228.36914434814452,32.10971325683593 228.3071443481445,31.945713256835944 228.3071443481445,31.832713256835945 C228.3071443481445,31.449713256835935 227.23114434814454,29.85971325683593 226.30814434814454,28.877713256835932 C224.87814434814453,27.35671325683593 223.57114434814451,26.559713256835934 221.3071443481445,25.826713256835944 C220.42814434814454,25.541713256835934 216.43014434814455,25.391713256835942 215.3071443481445,25.60071325683593 M243.1821443481445,25.60371325683593 C241.99414434814452,25.85571325683594 240.44114434814452,26.701713256835944 239.34714434814452,27.69171325683594 L238.3071443481445,28.63271325683594 L238.3071443481445,27.285713256835933 L238.3071443481445,25.93871325683594 L235.8071443481445,25.93871325683594 L233.3071443481445,25.93871325683594 L233.3071443481445,41.104713256835936 L233.3071443481445,56.27171325683594 L235.80414434814452,56.27171325683594 L238.3021443481445,56.27171325683594 L238.34614434814455,50.86771325683594 L238.39014434814453,45.463713256835945 L239.22314434814456,46.20071325683594 C239.6821443481445,46.60571325683594 240.18814434814453,46.98071325683594 240.34814434814456,47.03271325683593 C240.50914434814456,47.08471325683594 240.64014434814453,47.18871325683594 240.64014434814453,47.26371325683594 C240.64014434814453,47.692713256835944 243.84414434814454,48.604713256835936 245.35114434814454,48.604713256835936 C251.46114434814456,48.604713256835936 255.3071443481445,44.098713256835936 255.3071443481445,36.93871325683594 C255.3071443481445,29.035713256835933 250.07214434814455,24.141713256835942 243.1821443481445,25.60371325683593 M136.64014434814453,36.93871325683594 L136.64014434814453,47.93871325683594 L139.14014434814453,47.93871325683594 L141.64014434814453,47.93871325683594 L141.64014434814453,36.93871325683594 L141.64014434814453,25.93871325683594 L139.14014434814453,25.93871325683594 L136.64014434814453,25.93871325683594 L136.64014434814453,36.93871325683594 M122.55714434814453,29.94771325683594 C124.74514434814452,30.518713256835937 126.11014434814453,31.832713256835945 127.13214434814452,34.34971325683594 C128.33314434814454,37.308713256835944 126.70714434814454,42.14571325683593 124.09314434814453,43.39371325683594 C122.75814434814453,44.03171325683594 122.45214434814454,44.104713256835936 121.14014434814453,44.104713256835936 C119.82414434814453,44.104713256835936 119.52214434814454,44.03171325683594 118.17414434814452,43.38671325683593 C117.34214434814453,42.988713256835936 116.16014434814454,41.74371325683593 115.69014434814454,40.76971325683594 C112.95214434814454,35.095713256835936 117.11914434814454,28.528713256835943 122.55714434814453,29.94771325683594 M219.22314434814456,29.99871325683594 C223.81514434814454,31.22471325683594 225.65514434814452,37.15871325683594 222.7781443481445,41.464713256835935 C222.4321443481445,41.982713256835936 221.94014434814454,42.56371325683594 221.68614434814452,42.75471325683594 C221.4321443481445,42.945713256835944 221.1481443481445,43.15871325683594 221.0571443481445,43.22871325683593 C220.8791443481445,43.363713256835936 220.34914434814453,43.61271325683593 219.59014434814452,43.91771325683594 C217.21414434814454,44.87271325683594 213.59914434814453,43.294713256835934 212.3621443481445,40.76171325683593 C209.58214434814454,35.062713256835934 213.74414434814452,28.534713256835943 219.22314434814456,29.99871325683594 M246.03714434814452,30.183713256835944 C246.48514434814456,30.339713256835935 246.96614434814455,30.553713256835934 247.10714434814452,30.660713256835933 C247.78814434814456,31.178713256835934 248.97314434814456,32.46571325683594 248.97314434814456,32.687713256835934 C248.97314434814456,32.82571325683594 249.04814434814455,32.93871325683594 249.14014434814453,32.93871325683594 C249.23214434814452,32.93871325683594 249.3071443481445,33.073713256835944 249.3071443481445,33.238713256835936 C249.3071443481445,33.40371325683594 249.36914434814452,33.60971325683593 249.44514434814454,33.696713256835935 C250.31314434814453,34.687713256835934 250.2011443481445,38.83171325683594 249.25514434814454,40.75571325683593 C247.32714434814454,44.678713256835934 242.15114434814456,45.25571325683593 238.9321443481445,41.90771325683593 L238.3071443481445,41.25771325683594 L238.3071443481445,36.946713256835935 L238.3071443481445,32.63571325683594 L239.02214434814454,31.899713256835938 C240.78014434814452,30.09171325683593 243.71114434814456,29.37371325683594 246.03714434814452,30.183713256835944 " stroke="none" fill="#fcfcfc" fill-rule="evenodd"/><path id="path1" d="M30.72314434814453,0.0357132568359404 C29.302144348144537,0.14171325683593494 27.63714434814453,0.4287132568359411 25.307144348144533,0.9687132568359402 C18.499144348144526,2.5487132568359385 10.895144348144527,7.412713256835943 6.956144348144534,12.70671325683594 C6.554144348144533,13.246713256835932 6.178144348144528,13.725713256835931 6.121144348144526,13.771713256835938 C5.766144348144536,14.054713256835939 4.11314434814453,16.85071325683593 3.2141443481445293,18.68871325683594 C1.6721443481445277,21.83871325683593 0.9271443481445374,24.267713256835933 0.21214434814453398,28.47171325683594 C-0.1048556518554733,30.333713256835935 -0.05685565185547148,35.681713256835934 0.2911443481445275,37.27171325683594 C0.40114434814452693,37.77571325683594 0.5661443481445332,38.56371325683594 0.6571443481445272,39.02171325683594 C2.7951443481445324,49.75971325683594 10.460144348144524,58.72171325683594 21.14014434814453,62.97171325683594 C23.142144348144527,63.76871325683594 24.185144348144533,64.07271325683594 27.057144348144533,64.69471325683594 C36.005144348144526,66.63371325683593 49.216144348144525,63.56371325683594 54.82314434814454,58.24271325683594 C54.95214434814453,58.12171325683593 55.34814434814453,57.803713256835934 55.70514434814453,57.53771325683594 C58.41214434814454,55.51371325683594 62.144144348144536,50.90171325683593 63.974144348144534,47.318713256835935 C64.66814434814452,45.958713256835935 64.73114434814454,45.77171325683594 64.49614434814453,45.77171325683594 C64.41714434814452,45.77171325683594 63.79914434814452,45.46271325683594 63.121144348144526,45.08571325683593 C62.44414434814453,44.707713256835945 61.44014434814453,44.16671325683593 60.89014434814453,43.88271325683594 C60.340144348144534,43.598713256835936 59.865144348144526,43.30771325683594 59.834144348144534,43.235713256835936 C59.80414434814453,43.16371325683593 59.709144348144534,43.104713256835936 59.623144348144535,43.104713256835936 C59.53714434814454,43.104713256835936 59.18714434814453,42.93071325683594 58.84514434814453,42.71671325683593 C58.50314434814453,42.50271325683593 57.736144348144535,42.073713256835944 57.14014434814453,41.76271325683594 C56.54414434814453,41.45071325683594 56.019144348144536,41.15671325683594 55.97314434814453,41.10871325683594 C55.82714434814453,40.955713256835935 54.57014434814454,40.31371325683594 54.19314434814453,40.199713256835935 C53.86914434814453,40.101713256835936 53.752144348144526,40.24971325683593 53.118144348144526,41.55571325683594 C52.72614434814453,42.36171325683594 52.346144348144534,43.04671325683594 52.27314434814453,43.077713256835935 C52.20014434814453,43.107713256835936 52.14014434814453,43.21371325683593 52.14014434814453,43.311713256835944 C52.14014434814453,44.08771325683594 48.02314434814453,48.29071325683594 45.97314434814453,49.60671325683593 C45.19414434814453,50.107713256835936 44.519144348144536,50.559713256835934 44.47314434814453,50.61171325683594 C44.42714434814454,50.66371325683593 44.090144348144534,50.84171325683593 43.72314434814453,51.00671325683594 C43.35714434814453,51.172713256835934 42.86314434814453,51.40071325683594 42.62514434814453,51.51371325683594 C37.47014434814453,53.970713256835936 30.14914434814453,53.863713256835936 24.39014434814453,51.24771325683594 C23.831144348144534,50.99371325683593 21.436144348144538,49.586713256835935 21.307144348144533,49.43571325683594 C21.261144348144526,49.38271325683594 20.966144348144525,49.15871325683594 20.65214434814453,48.939713256835944 C20.10714434814453,48.558713256835944 19.176144348144533,47.75671325683594 18.410144348144527,47.00971325683594 C17.428144348144528,46.050713256835934 16.291144348144527,44.54571325683594 15.018144348144531,42.51571325683594 C9.98214434814453,34.48771325683593 12.394144348144536,22.82871325683594 20.39014434814453,16.546713256835943 C20.94014434814453,16.11471325683594 21.489144348144535,15.680713256835944 21.61014434814453,15.582713256835945 C21.918144348144537,15.33171325683594 25.433144348144538,13.557713256835939 26.14014434814453,13.295713256835938 C30.19614434814453,11.793713256835943 35.216144348144525,11.521713256835938 39.14014434814453,12.59071325683594 C39.46114434814453,12.677713256835943 39.91114434814453,12.799713256835943 40.14014434814453,12.860713256835936 C40.36914434814453,12.921713256835943 40.79314434814454,13.076713256835944 41.082144348144524,13.204713256835944 C41.371144348144526,13.333713256835935 41.65114434814453,13.438713256835939 41.704144348144524,13.438713256835939 C42.721144348144534,13.438713256835939 47.136144348144526,16.30771325683594 49.05714434814453,18.21871325683594 C50.597144348144525,19.749713256835932 50.772144348144536,19.946713256835935 51.465144348144534,20.924713256835943 L51.86914434814453,21.494713256835936 L51.48214434814453,21.75771325683594 C51.27014434814453,21.902713256835938 50.719144348144525,22.223713256835936 50.25914434814453,22.470713256835936 L49.42414434814454,22.92071325683594 L48.477144348144535,21.720713256835936 C40.66414434814453,11.821713256835935 24.817144348144538,12.609713256835931 18.019144348144536,23.235713256835936 C17.353144348144525,24.276713256835933 16.22914434814453,26.627713256835932 16.090144348144534,27.271713256835938 C16.040144348144537,27.500713256835937 15.86914434814453,28.175713256835934 15.708144348144529,28.771713256835938 C14.538144348144527,33.12471325683593 15.818144348144529,39.13771325683594 18.74714434814453,43.04171325683593 C27.12514434814453,54.21071325683593 44.78614434814453,52.55571325683594 50.704144348144524,40.047713256835934 C51.44514434814454,38.48171325683593 51.43914434814454,38.348713256835936 50.61314434814453,37.95971325683594 C50.215144348144534,37.77171325683594 49.55214434814454,37.42171325683594 49.14014434814453,37.18071325683594 C47.203144348144534,36.04971325683594 47.26214434814453,36.074713256835935 47.117144348144535,36.303713256835934 C47.04114434814453,36.42371325683594 46.977144348144535,36.57571325683594 46.97614434814453,36.64171325683594 C46.94514434814454,38.116713256835936 42.37514434814453,43.75071325683594 41.19614434814453,43.76871325683594 C41.08914434814453,43.77071325683593 40.97614434814453,43.827713256835935 40.94614434814453,43.89671325683594 C40.859144348144525,44.09171325683593 39.18414434814453,44.866713256835936 38.05714434814453,45.23371325683594 C35.599144348144534,46.03471325683594 32.01514434814453,46.03471325683594 29.557144348144533,45.23371325683594 C28.61914434814453,44.928713256835934 26.829144348144524,44.13471325683594 26.64014434814453,43.940713256835934 C26.594144348144525,43.89271325683593 26.340144348144534,43.74271325683594 26.07614434814454,43.60571325683594 C25.028144348144536,43.064713256835944 21.97314434814453,39.857713256835936 21.97314434814453,39.29871325683594 C21.97314434814453,39.207713256835945 21.917144348144532,39.107713256835936 21.84814434814453,39.077713256835935 C21.656144348144537,38.991713256835936 21.032144348144527,37.63271325683594 20.675144348144528,36.52171325683594 C19.788144348144527,33.75871325683593 19.772144348144536,31.996713256835932 20.605144348144535,28.771713256835938 C20.820144348144538,27.93571325683594 21.95214434814453,25.708713256835935 22.414144348144532,25.20971325683594 C22.630144348144526,24.976713256835936 22.807144348144533,24.73371325683594 22.807144348144533,24.669713256835934 C22.807144348144533,24.384713256835937 25.350144348144525,22.127713256835932 26.319144348144533,21.552713256835943 C27.820144348144538,20.662713256835943 27.82414434814453,20.660713256835933 28.47314434814453,20.387713256835937 C31.94614434814453,18.925713256835934 36.96114434814453,19.098713256835936 39.97314434814453,20.783713256835938 C42.335144348144524,22.104713256835936 44.13914434814453,23.638713256835942 45.252144348144526,25.271713256835938 C45.92714434814454,26.261713256835932 46.97314434814453,28.395713256835933 46.97314434814453,28.779713256835933 C46.97314434814453,29.303713256835934 48.144144348144536,29.07871325683594 48.64014434814453,28.458713256835935 C48.68614434814454,28.401713256835933 48.94814434814454,28.23371325683594 49.22314434814453,28.08471325683594 C51.02714434814453,27.11171325683594 51.864144348144535,26.639713256835932 52.92914434814453,25.99871325683594 C53.59214434814453,25.598713256835936 54.16914434814453,25.271713256835938 54.21114434814453,25.271713256835938 C54.25314434814453,25.271713256835938 54.96414434814453,24.85971325683593 55.79214434814453,24.354713256835936 C56.620144348144535,23.85071325683593 57.355144348144535,23.43571325683594 57.42714434814454,23.43271325683594 C58.68314434814454,23.381713256835937 56.87814434814453,19.782713256835933 53.835144348144524,16.271713256835938 C52.90114434814453,15.193713256835935 52.31814434814453,14.633713256835932 50.39014434814453,12.95971325683594 C50.207144348144524,12.800713256835934 49.68214434814453,12.411713256835938 49.22314434814453,12.095713256835936 C48.76514434814453,11.779713256835933 48.352144348144535,11.48371325683594 48.30714434814453,11.438713256835939 C48.08314434814453,11.214713256835935 45.492144348144535,9.887713256835937 44.39014434814453,9.431713256835934 C44.207144348144524,9.356713256835931 43.79414434814453,9.185713256835939 43.47314434814453,9.052713256835943 C42.109144348144525,8.486713256835941 40.499144348144526,8.043713256835943 38.14014434814453,7.5827132568359445 C35.67814434814453,7.100713256835931 29.932144348144533,7.363713256835936 27.14014434814453,8.08571325683593 C17.814144348144538,10.496713256835932 10.474144348144534,17.768713256835937 8.417144348144532,26.634713256835937 C7.8521443481445345,29.070713256835944 7.775144348144536,29.780713256835938 7.772144348144536,32.59371325683594 C7.770144348144527,35.42371325683594 7.842144348144529,36.09371325683594 8.423144348144533,38.604713256835936 C10.48514434814453,47.52371325683593 18.61614434814453,55.42971325683594 27.63414434814453,57.28371325683594 C32.94414434814453,58.37571325683594 37.30414434814453,58.16571325683594 42.30714434814453,56.57871325683594 C44.76414434814453,55.79871325683594 49.213144348144525,53.49871325683594 49.97314434814453,52.616713256835936 C50.019144348144536,52.56371325683594 50.340144348144534,52.308713256835944 50.68714434814453,52.04971325683594 C51.502144348144526,51.442713256835944 53.977144348144535,48.96671325683593 54.585144348144524,48.15271325683594 C54.843144348144534,47.80571325683594 55.093144348144534,47.48371325683594 55.141144348144536,47.43871325683594 C55.18814434814453,47.39271325683593 55.41114434814453,47.07871325683594 55.63714434814453,46.741713256835936 L56.04714434814453,46.12771325683593 L56.969144348144525,46.62971325683594 C58.42114434814454,47.419713256835934 58.41514434814454,47.39971325683594 57.606144348144525,48.53171325683594 C54.67214434814453,52.63671325683593 48.615144348144526,57.42971325683594 45.03114434814454,58.48171325683593 C44.862144348144525,58.53071325683594 44.227144348144535,58.75671325683594 43.621144348144526,58.98171325683593 C41.43214434814453,59.79671325683594 38.79614434814454,60.34171325683593 35.72314434814453,60.61571325683593 C33.07014434814454,60.85271325683594 30.032144348144527,60.58171325683594 26.47314434814453,59.79071325683594 C25.197144348144533,59.50771325683594 22.155144348144532,58.45371325683594 21.780144348144532,58.16571325683594 C21.657144348144527,58.071713256835935 21.294144348144528,57.89371325683594 20.97314434814453,57.77071325683593 C20.653144348144536,57.64771325683594 20.203144348144534,57.425713256835934 19.97314434814453,57.27871325683594 C19.74414434814453,57.13071325683593 19.33214434814454,56.90271325683594 19.057144348144533,56.77171325683594 C16.132144348144536,55.38271325683594 11.87514434814453,51.458713256835935 9.564144348144538,48.02171325683594 C8.180144348144538,45.96271325683594 6.640144348144531,43.083713256835935 6.640144348144531,42.55471325683594 C6.640144348144531,42.43571325683594 6.577144348144529,42.26671325683594 6.500144348144531,42.17971325683594 C6.273144348144527,41.92371325683594 5.475144348144525,39.10571325683594 5.157144348144527,37.43871325683594 C4.312144348144528,33.00871325683593 4.661144348144532,28.662713256835943 6.275144348144536,23.500713256835937 C6.624144348144526,22.386713256835932 8.161144348144532,19.21571325683594 8.688144348144533,18.526713256835933 C8.760144348144536,18.43271325683594 9.123144348144535,17.878713256835937 9.495144348144535,17.297713256835934 C10.400144348144536,15.879713256835942 11.645144348144527,14.437713256835934 13.766144348144536,12.34971325683594 C21.203144348144534,5.026713256835933 35.269144348144536,2.40171325683594 44.55714434814453,6.604713256835936 C47.15514434814453,7.780713256835938 48.07214434814453,8.23071325683594 49.05714434814453,8.815713256835934 C50.11314434814453,9.44171325683594 51.258144348144526,10.21271325683594 51.47314434814453,10.44171325683594 C51.519144348144536,10.490713256835932 51.894144348144536,10.790713256835943 52.30714434814453,11.109713256835931 C53.990144348144526,12.408713256835938 55.849144348144534,14.291713256835934 56.78114434814454,15.641713256835942 C56.92514434814453,15.850713256835931 57.14214434814453,16.12371325683594 57.26414434814453,16.247713256835937 C57.737144348144525,16.73171325683593 58.81214434814453,18.44471325683594 59.63414434814453,20.026713256835933 C60.108144348144535,20.936713256835944 60.51814434814453,21.705713256835935 60.54714434814453,21.73371325683594 C60.614144348144535,21.80171325683594 61.754144348144536,21.140713256835937 62.40614434814454,20.655713256835938 C62.68914434814454,20.44471325683594 63.008144348144526,20.271713256835938 63.11414434814452,20.271713256835938 C63.220144348144544,20.271713256835938 63.30714434814453,20.196713256835935 63.30714434814453,20.104713256835936 C63.30714434814453,20.013713256835942 63.40014434814452,19.937713256835934 63.51514434814453,19.937713256835934 C63.63014434814454,19.936713256835944 63.93514434814452,19.766713256835942 64.19414434814453,19.559713256835934 L64.66514434814454,19.183713256835944 L64.27714434814453,18.43571325683594 C64.06414434814454,18.024713256835938 63.85214434814452,17.650713256835942 63.80614434814453,17.604713256835936 C63.760144348144536,17.558713256835944 63.61214434814454,17.296713256835943 63.47714434814452,17.021713256835938 C61.93214434814453,13.880713256835932 57.63414434814453,8.952713256835935 54.64014434814453,6.887713256835937 C54.227144348144535,6.603713256835931 53.79114434814453,6.273713256835933 53.67014434814453,6.154713256835933 C53.54914434814454,6.035713256835933 53.385144348144536,5.938713256835939 53.30714434814453,5.938713256835939 C53.228144348144525,5.938713256835939 53.06514434814453,5.844713256835931 52.94414434814453,5.729713256835936 C52.20014434814453,5.025713256835942 47.68014434814454,2.604713256835936 47.11014434814453,2.604713256835936 C46.980144348144535,2.604713256835936 46.80214434814454,2.5377132568359357 46.715144348144534,2.455713256835935 C46.52914434814453,2.280713256835938 43.39314434814453,1.219713256835938 42.30714434814453,0.9647132568359353 C41.602144348144535,0.7987132568359385 41.245144348144535,0.7247132568359405 38.989144348144535,0.2777132568359377 C38.06714434814454,0.0947132568359379 32.224144348144534,-0.07628674316406148 30.72314434814453,0.0357132568359404 M138.03814434814453,17.543713256835943 C136.46914434814454,17.895713256835933 135.57914434814452,20.46871325683594 136.49214434814454,22.015713256835937 C137.68214434814453,24.031713256835943 140.91914434814453,23.866713256835936 141.94914434814453,21.73771325683593 C143.13914434814453,19.280713256835938 140.91714434814452,16.897713256835942 138.03814434814453,17.543713256835943 " stroke="none" fill="#24a4dc" fill-rule="evenodd"/></g></g></svg>